<?xml version="1.0" encoding="utf-8"?><svg width="98" height="72" viewBox="0 0 98 72" xmlns="http://www.w3.org/2000/svg" xmlns:xlink="http://www.w3.org/1999/xlink"><svg data-name="Layer 1" viewBox="0 0 19.42 27.4" fill="#fff" width="19.42" height="27.4" id="icons--arrow_downward" x="58.489999999999995" xmlns="http://www.w3.org/2000/svg"><path d="M17.48 17.81l-1.41-1.41-5.59 5.6V1.81h-2V22L2.9 16.39l-1.42 1.42 8 8z"/></svg><svg data-name="Layer 1" viewBox="0 0 28 28" width="28" height="28" id="icons--arrow_left" y="19.92" xmlns="http://www.w3.org/2000/svg"><path d="M18.72 8.72L13.43 14l5.29 5.28-1.63 1.63L10.17 14l6.92-6.91z"/></svg><svg data-name="Layer 1" viewBox="0 0 28 28" width="28" height="28" id="icons--arrow_right" x="30.49" xmlns="http://www.w3.org/2000/svg"><path d="M10.17 19.28L15.46 14l-5.29-5.28 1.63-1.63L18.72 14l-6.92 6.91z"/></svg><svg data-name="Layer 1" viewBox="0 0 30.49 19.92" fill="#FBD784" width="30.49" height="19.92" id="icons--arrow_rightward" xmlns="http://www.w3.org/2000/svg"><path d="M19.72 1.55L18.31 3l5.58 5.59H3.72v2h20.17l-5.59 5.54 1.42 1.42 8-8z"/></svg><svg id="icons--facebook" data-name="Layer 1" viewBox="0 0 24 24" fill="#fff" width="24" height="24" y="47.92" xmlns="http://www.w3.org/2000/svg"><defs><clipPath id="eclip-path"><path class="ecls-1" d="M0 0h24v24H0z"/></clipPath><style>.ecls-1{fill:none}.cls-2{clip-path:url(#eclip-path)}</style></defs><path d="M15 4.82h2V1.16A25.05 25.05 0 0014.07 1C11.18 1 9.2 2.9 9.2 6.4v3.22H6v4.09h3.2V24h3.91V13.71h3.07l.49-4.08h-3.56V6.81c0-1.18.31-1.99 1.89-1.99z"/></svg><svg data-name="Layer 1" viewBox="0 0 24 24" fill="#fff" width="24" height="24" id="icons--instagram" x="24" y="47.92" xmlns="http://www.w3.org/2000/svg"><path d="M7.8 2h8.4A5.8 5.8 0 0122 7.8v8.4a5.8 5.8 0 01-5.8 5.8H7.8A5.8 5.8 0 012 16.2V7.8A5.8 5.8 0 017.8 2zm-.2 2A3.6 3.6 0 004 7.6v8.8A3.6 3.6 0 007.6 20h8.8a3.6 3.6 0 003.6-3.6V7.6A3.6 3.6 0 0016.4 4zm9.65 1.5A1.25 1.25 0 1116 6.75a1.25 1.25 0 011.25-1.25zM12 7a5 5 0 11-5 5 5 5 0 015-5zm0 2a3 3 0 103 3 3 3 0 00-3-3z"/></svg><svg data-name="Layer 1" viewBox="0 0 20 20" fill="#fff" width="20" height="20" id="icons--search" x="77.91" xmlns="http://www.w3.org/2000/svg"><path d="M15.56 16.92l-4.76-4.76A5 5 0 1112 11l4.76 4.76-1.18 1.18zM7.9 4.75a3.33 3.33 0 102.43 1l.51.5-.57-.57a3.3 3.3 0 00-2.37-.93z"/></svg><svg data-name="Layer 1" viewBox="0 0 24 24" fill="#fff" width="24" height="24" id="icons--twitter" x="48" y="47.92" xmlns="http://www.w3.org/2000/svg"><path d="M22.92 6a8.86 8.86 0 01-2.47.68 4.27 4.27 0 001.89-2.38 8.64 8.64 0 01-2.72 1.05 4.29 4.29 0 00-7.43 2.93 4.46 4.46 0 00.11 1 12.19 12.19 0 01-8.84-4.49 4.24 4.24 0 00-.58 2.15 4.3 4.3 0 001.9 3.58A4.4 4.4 0 012.84 10a4.29 4.29 0 003.44 4.21 4.22 4.22 0 01-1.13.15 4.45 4.45 0 01-.81-.08 4.3 4.3 0 004 3A8.56 8.56 0 013 19.13a8.72 8.72 0 01-1-.06A12.14 12.14 0 008.58 21 12.13 12.13 0 0020.79 8.79v-.56A8.69 8.69 0 0022.92 6z"/></svg></svg>